# xmcd CD database file
#
# Track frame offsets:
#	150
#	16760
#	36612
#	54390
#	69587
#	90252
#	111292
#	129827
#	146197
#	163527
#	190990
#	206377
#
# Disc length: 2870 seconds
#
# Revision: 4
# Processed by: cddbd v1.5PL3 Copyright (c) Steve Scherf et al.
# Submitted via: CDex 1.51
#
DISCID=a10b340c
DTITLE=Bugs Henderson - Back Bop! Unreleased '82 Sessions
DYEAR=1999
DGENRE=Rock
TTITLE0=Ain't Your Daddy's Business
TTITLE1=I Can't Stand You Anymore
TTITLE2=Backbop
TTITLE3=Help Me
TTITLE4=Quick Sand
TTITLE5=Lost in the Shuffle
TTITLE6=Love Junkie
TTITLE7=Don't Do It
TTITLE8=Thief in the Night
TTITLE9=Livin' Legend
TTITLE10=Rock and Roll Man
TTITLE11=Audio Liner Notes
EXTD=YEAR: 1999
EXTT0=
EXTT1=
EXTT2=
EXTT3=
EXTT4=
EXTT5=
EXTT6=
EXTT7=
EXTT8=
EXTT9=
EXTT10=
EXTT11=
PLAYORDER=
